<?xml version="1.0" encoding="UTF-8"?>
<svg viewBox="0 0 30 30" version="1.1" xmlns="http://www.w3.org/2000/svg" xmlns:xlink="http://www.w3.org/1999/xlink">
    <!-- Generator: Sketch 63.1 (92452) - https://sketch.com -->
    <title>ICON/Tancar</title>
    <desc>Created with Sketch.</desc>
    <g id="Iconografia-LMS" stroke="none" stroke-width="1" fill="none" fill-rule="evenodd">
        <g id="Artboard" transform="translate(-226.000000, -125.000000)" fill="#FFFFFF">
            <g id="ICON/Tancar" transform="translate(226.000000, 125.000000)">
                <g>
                    <path d="M21.6698519,8.33011899 C21.3322185,7.99252444 20.790731,7.99252444 20.4530976,8.33011899 L15,13.7825895 L9.54690237,8.33011899 C9.20926899,7.99252444 8.66778149,7.99252444 8.33014811,8.33011899 C7.99251473,8.66771354 7.99251473,9.20913876 8.33014811,9.54673331 L13.7832457,14.9992038 L8.33014811,20.4516743 C7.99251473,20.7892688 7.99251473,21.330694 8.33014811,21.6682886 C8.49577958,21.833901 8.71874502,21.9230769 8.93534002,21.9230769 C9.15193502,21.9230769 9.37490046,21.8402707 9.54053193,21.6682886 L14.9936296,16.2158181 L20.4467272,21.6682886 C20.6123587,21.833901 20.8353241,21.9230769 21.0519191,21.9230769 C21.2748845,21.9230769 21.4914795,21.8402707 21.657111,21.6682886 C21.9947444,21.330694 21.9947444,20.7892688 21.657111,20.4516743 L16.2167543,14.9992038 L21.6698519,9.54673331 C22.0074853,9.20913876 22.0074853,8.66771354 21.6698519,8.33011899 Z" id="Path" fill-rule="nonzero"></path>
                    <g id="round-information-button" fill-rule="nonzero">
                        <path d="M14.9994,0 C6.728925,0 0,6.729 0,15 C0,23.271 6.728925,30 14.9994,30 C23.270475,30 30,23.271 30,15 C30,6.729 23.270475,0 14.9994,0 Z M14.9994,28.03275 C7.8135,28.03275 1.96725,22.1862 1.96725,15 C1.96725,7.813725 7.813425,1.967325 14.9994,1.967325 C22.1862,1.967325 28.0326,7.8138 28.0326,15 C28.0326,22.1862 22.1862,28.03275 14.9994,28.03275 Z" id="Shape"></path>
                    </g>
                </g>
            </g>
        </g>
    </g>
</svg>