<?xml version="1.0" encoding="UTF-8"?>
<svg viewBox="0 0 28 21" version="1.1" xmlns="http://www.w3.org/2000/svg" xmlns:xlink="http://www.w3.org/1999/xlink">
    <!-- Generator: Sketch 63.1 (92452) - https://sketch.com -->
    <title>ICON/Menu/Negre</title>
    <desc>Created with Sketch.</desc>
    <g id="Iconografia-LMS" stroke="none" stroke-width="1" fill="none" fill-rule="evenodd">
        <g id="Artboard" transform="translate(-108.000000, -130.000000)" fill="#1D1D1B">
            <g id="ICON/Menu/Negre" transform="translate(108.000000, 130.000000)">
                <g id="menu">
                    <path d="M26.7810184,18.4210526 L1.21898157,18.4210526 C0.780058683,18.4210526 0.424242424,18.7961953 0.424242424,19.2583732 C0.424242424,19.7210754 0.780058683,20.0956938 1.21898157,20.0956938 L26.7810184,20.0956938 C27.2199413,20.0956938 27.5757576,19.7210754 27.5757576,19.2583732 C27.5757576,18.7961953 27.2199413,18.4210526 26.7810184,18.4210526 Z" id="Path" fill-rule="nonzero"></path>
                    <path d="M26.7810184,9.21052632 L1.21898157,9.21052632 C0.780058683,9.21052632 0.424242424,9.5858724 0.424242424,10.047978 C0.424242424,10.5103456 0.780058683,10.8851675 1.21898157,10.8851675 L26.7810184,10.8851675 C27.2199413,10.8851675 27.5757576,10.5103456 27.5757576,10.047978 C27.5757576,9.5858724 27.2199413,9.21052632 26.7810184,9.21052632 Z" id="Path" fill-rule="nonzero"></path>
                    <path d="M26.7810184,0 L1.21898157,0 C0.780058683,0 0.424242424,0.375142636 0.424242424,0.837320541 C0.424242424,1.29976058 0.780058683,1.67464115 1.21898157,1.67464115 L26.7810184,1.67464115 C27.2199413,1.67464115 27.5757576,1.29976058 27.5757576,0.837320541 C27.5757576,0.375142636 27.2199413,0 26.7810184,0 Z" id="Path" fill-rule="nonzero"></path>
                </g>
            </g>
        </g>
    </g>
</svg>